<svg width="280" height="280" viewBox="0 0 280 280" fill="none" xmlns="http://www.w3.org/2000/svg">
<path d="M186.553 246.017L181.02 251.239C180.876 251.375 180.761 251.539 180.683 251.721C180.604 251.903 180.564 252.099 180.563 252.297V260.616C180.563 260.978 180.698 261.327 180.941 261.594C181.185 261.862 181.519 262.029 181.879 262.063L192.769 263.122L198.772 257.455C198.917 257.319 199.033 257.155 199.112 256.973C199.19 256.791 199.231 256.595 199.231 256.396V248.027C199.231 247.664 199.096 247.314 198.851 247.046C198.607 246.777 198.271 246.61 197.909 246.577L187.687 245.627C187.481 245.608 187.273 245.633 187.078 245.7C186.883 245.767 186.703 245.875 186.553 246.017Z" fill="#3FBDF1"/>
<path d="M185.973 244.566L179.48 250.695C179.31 250.855 179.176 251.047 179.084 251.261C178.992 251.475 178.945 251.705 178.945 251.938V261.699C178.944 262.123 179.102 262.533 179.388 262.847C179.673 263.161 180.065 263.358 180.488 263.399L193.267 264.642L200.314 257.989C200.484 257.829 200.618 257.636 200.71 257.422C200.802 257.209 200.85 256.978 200.849 256.746V246.923C200.849 246.498 200.69 246.088 200.403 245.773C200.116 245.459 199.722 245.263 199.298 245.224L187.303 244.104C187.061 244.082 186.817 244.111 186.588 244.191C186.359 244.271 186.149 244.398 185.973 244.566Z" fill="#3FBDF1"/>
<path d="M220.08 190.336V198.702C220.08 198.9 220.039 199.096 219.96 199.278C219.882 199.46 219.767 199.624 219.624 199.76L213.615 205.428L202.72 204.369C202.405 204.341 202.109 204.207 201.88 203.988C203.68 203.77 205.195 202.933 205.66 202.028C206.374 200.628 206.184 198.187 203.14 197.761C202.551 197.683 201.968 197.563 201.396 197.403V194.6C201.395 194.402 201.436 194.206 201.514 194.025C201.592 193.843 201.707 193.68 201.852 193.544L207.382 188.317C207.532 188.179 207.709 188.073 207.902 188.007C208.094 187.94 208.299 187.914 208.502 187.93L218.725 188.882C219.093 188.907 219.438 189.071 219.69 189.341C219.941 189.611 220.081 189.967 220.08 190.336Z" fill="#3FBDF1"/>
<path d="M221.701 189.232V199.052C221.701 199.286 221.652 199.517 221.56 199.732C221.467 199.947 221.331 200.14 221.161 200.301L214.119 206.948L201.34 205.707C200.917 205.666 200.525 205.469 200.239 205.154C199.954 204.84 199.796 204.43 199.797 204.005V203.966C200.492 204.077 201.2 204.084 201.897 203.988C203.697 203.77 205.212 202.933 205.677 202.028C206.391 200.628 206.2 198.187 203.157 197.761C202.568 197.682 201.985 197.562 201.412 197.403C200.046 196.985 199.962 196.529 199.962 196.529L199.794 196.635V194.255C199.792 194.023 199.839 193.793 199.93 193.579C200.022 193.366 200.156 193.174 200.326 193.015L206.822 186.883C206.998 186.716 207.208 186.589 207.437 186.51C207.667 186.43 207.91 186.4 208.152 186.421L220.147 187.541C220.569 187.581 220.962 187.776 221.249 188.088C221.536 188.401 221.697 188.808 221.701 189.232Z" fill="#3FBDF1"/>
<path d="M222.104 215.684L215.566 221.844C215.396 222.005 215.26 222.199 215.167 222.414C215.074 222.629 215.026 222.861 215.026 223.096V232.926C215.025 233.354 215.184 233.767 215.472 234.084C215.759 234.401 216.154 234.599 216.58 234.64L229.46 235.892L236.558 229.194C236.728 229.033 236.864 228.839 236.957 228.624C237.05 228.409 237.098 228.177 237.098 227.942V218.058C237.099 217.629 236.939 217.216 236.649 216.899C236.36 216.581 235.963 216.384 235.536 216.345L223.457 215.225C223.211 215.2 222.964 215.228 222.731 215.307C222.497 215.387 222.283 215.515 222.104 215.684Z" fill="#3FBDF1"/>
<path d="M221.418 213.97L213.744 221.214C213.544 221.403 213.385 221.63 213.276 221.882C213.167 222.135 213.111 222.406 213.111 222.681V234.217C213.111 234.719 213.298 235.203 213.636 235.574C213.973 235.946 214.437 236.179 214.936 236.228L230.04 237.695L238.367 229.832C238.567 229.644 238.727 229.417 238.836 229.164C238.944 228.912 239 228.64 239 228.365V216.756C238.996 216.254 238.806 215.772 238.465 215.403C238.125 215.034 237.66 214.805 237.16 214.76L222.984 213.441C222.7 213.414 222.414 213.448 222.145 213.539C221.875 213.63 221.628 213.777 221.418 213.97Z" fill="#3FBDF1"/>
<path d="M239.828 221.687L233.024 228.11C232.847 228.278 232.707 228.479 232.61 228.703C232.514 228.927 232.464 229.169 232.464 229.412V239.641C232.464 240.086 232.63 240.515 232.929 240.845C233.228 241.174 233.64 241.381 234.083 241.424L247.475 242.726L254.859 235.76C255.036 235.592 255.177 235.39 255.273 235.166C255.369 234.942 255.419 234.701 255.419 234.458V224.157C255.418 223.71 255.251 223.28 254.95 222.95C254.649 222.62 254.236 222.415 253.792 222.373L241.223 221.2C240.969 221.176 240.713 221.208 240.473 221.292C240.232 221.376 240.013 221.511 239.828 221.687Z" fill="#3FBDF1"/>
<path d="M239.12 219.904L231.134 227.442C230.926 227.638 230.761 227.875 230.647 228.138C230.534 228.401 230.476 228.684 230.476 228.971V240.977C230.476 241.499 230.67 242.001 231.02 242.388C231.371 242.774 231.853 243.016 232.372 243.066L248.08 244.595L256.76 236.413C256.968 236.216 257.133 235.979 257.246 235.716C257.359 235.453 257.418 235.17 257.418 234.884V222.802C257.417 222.279 257.221 221.774 256.869 221.388C256.516 221.001 256.032 220.759 255.511 220.711L240.758 219.339C240.46 219.311 240.16 219.348 239.878 219.445C239.595 219.542 239.337 219.699 239.12 219.904Z" fill="#3FBDF1"/>
<path d="M220.178 229.11L210.638 238.115C210.389 238.349 210.191 238.632 210.056 238.946C209.92 239.26 209.851 239.598 209.852 239.94V254.282C209.854 254.904 210.087 255.504 210.505 255.965C210.923 256.426 211.497 256.716 212.117 256.779L230.894 258.605L241.254 248.83C241.502 248.595 241.699 248.312 241.835 247.998C241.97 247.684 242.04 247.346 242.04 247.005V232.573C242.038 231.949 241.803 231.347 241.382 230.885C240.961 230.424 240.383 230.135 239.761 230.076L222.138 228.435C221.782 228.402 221.423 228.445 221.085 228.561C220.747 228.678 220.438 228.865 220.178 229.11Z" fill="#3FBDF1"/>
<path d="M219.178 226.61L207.978 237.177C207.686 237.452 207.454 237.784 207.295 238.153C207.136 238.521 207.054 238.918 207.054 239.319V256.15C207.054 256.882 207.326 257.588 207.817 258.13C208.309 258.672 208.986 259.011 209.714 259.081L231.747 261.223L243.899 249.743C244.191 249.468 244.424 249.136 244.583 248.768C244.741 248.399 244.823 248.003 244.823 247.601V230.675C244.824 229.942 244.55 229.235 244.056 228.692C243.562 228.15 242.883 227.812 242.152 227.744L221.48 225.82C221.062 225.78 220.641 225.83 220.244 225.966C219.847 226.102 219.483 226.322 219.178 226.61Z" fill="#3FBDF1"/>
<path d="M152.88 105.697C160.72 99.7494 172.595 94.4098 188.482 97.179" stroke="#CCDDE2" stroke-width="4.59" stroke-miterlimit="10"/>
<path d="M156.861 110.345C163.839 105.498 173.342 101.777 185.735 102.575" stroke="white" stroke-width="4.59" stroke-linecap="round" stroke-linejoin="round"/>
<path d="M211.624 107.836C219.285 114.912 223.311 124.885 224.784 135.049C225.76 141.809 225.769 148.674 224.809 155.436C224.736 155.833 224.687 156.234 224.661 156.637C225.157 156.414 225.67 156.231 226.195 156.091C232.529 154.465 239.266 154.201 245.395 156.705C250.494 158.785 254.834 162.433 258.149 166.785C262.581 172.638 265.262 179.628 265.88 186.945C267 200.945 260.305 212.234 250.264 220.197L250.149 220.29" stroke="#CCDDE2" stroke-width="4.59" stroke-linejoin="round"/>
<path d="M210.4 114.573C220.329 126.241 220.959 141.929 220.083 156.881C220.063 157.209 219.94 158.077 219.825 158.959" stroke="white" stroke-width="4.59" stroke-linecap="round" stroke-linejoin="round"/>
<path d="M223.868 160.647C231.193 159.919 239.324 159.704 245.554 163.344C251.714 166.944 256.301 172.766 258.941 179.357C261.94 186.838 262.421 195.597 259.07 203.05C255.309 211.394 249.082 217.367 242.035 222.958C242.015 222.972 242.875 223.163 243.771 223.364" stroke="white" stroke-width="4.59" stroke-linecap="round" stroke-linejoin="round"/>
<path d="M96.4039 246.658C94.8356 247.223 93.1935 247.556 91.5291 247.647C67.8887 249.1 45.7043 236.167 30.0803 221.688C29.3663 221.027 28.6803 220.349 28.0195 219.663" stroke="black" stroke-width="4.59" stroke-miterlimit="10"/>
<path d="M119.146 237.37C120.512 239.459 123.718 238.624 123.718 238.624C141.599 234.956 136.382 211.282 121.257 200.295" stroke="black" stroke-width="4.59" stroke-miterlimit="10"/>
<path d="M139.972 180.88C133.49 187.096 127.702 190.868 122.279 193.102L124.519 177.442C100.089 162.831 93.5872 179.122 93.5872 179.122C92.652 180.651 92.218 198.789 92.0948 204.98C92.064 204.98 91.2884 204.98 91.2548 204.98C75.8548 204.157 61.936 190.07 61.936 190.07C69.7172 170.531 97.496 146.39 97.496 146.39C116.777 132.869 131.494 137.416 131.494 137.416C126.96 137.743 133.137 150.296 133.137 150.296C142.24 158.2 145.6 146.395 145.6 146.395C154.409 167.479 139.972 180.88 139.972 180.88Z" fill="#353642"/>
<path d="M155.901 171.76C155.901 171.76 154.302 192.301 140.406 191.621C140.406 191.621 135.195 185.984 135.327 181.698C135.458 177.411 147.087 150.64 147.087 150.64C147.087 150.64 154.624 169.439 155.901 171.76Z" fill="#353642"/>
<path d="M29.2963 220.873V220.943L30.4835 222.063C30.4835 222.063 29.9907 222.519 29.2963 223.183C28.3919 224.023 27.1459 225.182 26.2163 226.067C24.6063 227.595 16.3743 235.825 14.1763 228.34C14.6103 225.722 16.2735 220.338 22.6491 213.797C31.7155 204.479 30.4527 205.635 32.7291 205.789C33.7791 205.856 35.1399 206.472 36.3047 207.119C33.3591 208.345 28.8931 211.747 29.2963 220.873Z" fill="#3FBDF1"/>
<path d="M38.7659 208.667C38.7659 208.667 29.8535 209.507 29.2963 220.872V220.942C29.2599 221.642 29.2599 222.379 29.2963 223.163C28.3919 224.003 27.1459 225.162 26.2163 226.047C24.6063 227.576 16.3743 235.805 14.1763 228.32C14.6103 225.702 16.2735 220.318 22.6491 213.777C31.7155 204.459 30.4527 205.615 32.7291 205.769C33.7791 205.836 35.1399 206.452 36.3047 207.099C37.1514 207.579 37.9729 208.103 38.7659 208.667Z" fill="#3FBDF1"/>
<path d="M122.22 193.575C132.3 187.256 148.473 179.164 148.433 160.997C148.433 156.682 147.988 153.157 147.033 149.82L146.941 149.5C146.607 148.42 146.158 147.379 145.6 146.395" stroke="black" stroke-width="4.59" stroke-miterlimit="10"/>
<path d="M73.5977 225.021C71.2653 223.036 69.1597 221.121 67.7597 219.799L67.7373 219.777C66.6341 218.749 65.9733 218.097 65.9733 218.097C65.0353 216.817 64.2009 215.577 63.4533 214.384C63.4387 214.366 63.4281 214.345 63.4225 214.323C57.9849 205.531 57.6573 198.525 62.7225 188.218C62.7519 188.144 62.7855 188.071 62.8233 188C63.3833 186.88 64.0021 185.709 64.6853 184.5C74.8241 166.58 104.571 133.19 130.233 137.412" stroke="black" stroke-width="4.59" stroke-miterlimit="10"/>
<path d="M30.0886 221.679C24.7686 228.281 21.0362 230.625 18.5134 231.143C15.9906 231.661 13.6666 229.424 14.0334 226.837C15.2038 218.661 24.7182 208.88 29.3998 204.507C30.1169 203.832 31.037 203.414 32.0167 203.318C32.9964 203.221 33.9804 203.452 34.815 203.975L37.1586 205.433C44.083 209.751 51.3098 213.962 58.5758 217.843C65.237 221.405 72.5562 225.983 80.441 224.947" stroke="black" stroke-width="4.59" stroke-miterlimit="10"/>
<path d="M125.513 160.361C125.603 163.611 125.52 166.864 125.264 170.105C124.376 181.835 121.979 193.404 120.66 205.086C119.82 212.562 119.305 220.071 119.204 227.595C119.12 233.912 119.104 238.731 119.291 245.047C119.412 249.113 121.71 251.709 125.21 253.447C128.159 254.909 130.214 254.612 132.051 257.561C135.828 263.637 128.411 264.068 125.392 263.267C116.925 261.027 104.468 259.798 99.6324 251.378C95.7768 244.658 95.2868 240.265 94.3124 232.755C93.2484 224.619 92.3524 216.448 92.162 208.239C91.868 195.02 92.8928 173.757 97.6304 161.255" stroke="black" stroke-width="4.59" stroke-miterlimit="10"/>
<path d="M231.28 223.057L231.235 223.101L230.185 222.995L230.224 222.959L231.28 223.057Z" fill="#3FBDF1"/>
<path d="M214.623 221.626L223.249 222.48L214.623 221.696V221.626Z" fill="#3FBDF1"/>
<path d="M231.28 223.056L231.235 223.101L230.185 222.995L230.07 223.101L229.569 223.056L229.684 222.95L229.72 222.911L230.224 222.958L231.28 223.056Z" fill="#3FBDF1"/>
<path d="M231.28 223.056L231.235 223.101L230.185 222.995L229.684 222.95L229.72 222.911L230.224 222.958L231.28 223.056Z" fill="#3FBDF1"/>
<path d="M209.252 238.036L222.006 239.282L209.252 238.137V238.036Z" fill="#3FBDF1"/>
<path d="M233.887 240.131L233.819 240.199L232.265 240.042L232.097 240.199L231.355 240.131L231.523 239.975L231.579 239.919L232.324 239.986L233.887 240.131Z" fill="#3FBDF1"/>
<path d="M233.887 240.131L233.819 240.199L232.265 240.042L231.523 239.975L231.579 239.919L232.324 239.986L233.887 240.131Z" fill="#3FBDF1"/>
<path d="M146.936 149.498C146.936 149.498 155.173 176.977 164.808 183.378C173.886 189.407 186.074 186.791 195.647 183.499C198.29 182.589 200.948 181.701 203.767 181.743C207.735 181.799 215.821 182.678 216.871 187.295" stroke="black" stroke-width="4.59" stroke-miterlimit="10"/>
<path d="M136.108 184.366C150.324 213.153 175.529 207.41 188.504 202.207C189.68 201.729 190.955 201.547 192.217 201.675C193.472 201.813 194.457 202.345 195.625 202.795C197.61 203.579 199.853 204.142 202.006 203.997C204.159 203.851 206.783 202.21 205.876 199.671C205.153 197.646 202.902 197.792 201.177 197.403C199.452 197.013 199.038 194.499 200.651 193.684C200.671 193.678 200.689 193.667 200.704 193.653" stroke="black" stroke-width="4.59" stroke-miterlimit="10"/>
<path d="M200.849 245.372L193.267 252.537L178.945 251.204L186.536 244.042L200.849 245.372Z" stroke="black" stroke-width="4.59" stroke-linecap="square" stroke-linejoin="round"/>
<path d="M193.267 252.538V264.645L178.945 263.253V251.205L193.267 252.538Z" stroke="black" stroke-width="4.59" stroke-linecap="square" stroke-linejoin="round"/>
<path d="M200.849 245.372V257.487L193.267 264.644V252.537L200.849 245.372Z" stroke="black" stroke-width="4.59" stroke-linecap="square" stroke-linejoin="round"/>
<path d="M244.941 228.108L231.966 240.369L207.466 238.087L213.2 232.672V235.726L230.07 237.37L238.999 228.936V227.55L244.941 228.108Z" stroke="black" stroke-width="4.59" stroke-linecap="square" stroke-linejoin="round"/>
<path d="M231.966 240.366V261.078L207.466 258.698V238.09L231.966 240.366Z" stroke="black" stroke-width="4.59" stroke-linecap="square" stroke-linejoin="round"/>
<path d="M244.938 228.11V248.836L231.966 261.078V240.366L244.938 228.11Z" stroke="black" stroke-width="4.59" stroke-linecap="square" stroke-linejoin="round"/>
<path d="M238.999 214.668L230.07 223.101L213.2 221.536L222.138 213.1L238.999 214.668Z" stroke="black" stroke-width="4.59" stroke-linecap="square" stroke-linejoin="round"/>
<path d="M230.07 226.198V223.101L213.2 221.536V234.556" stroke="black" stroke-width="4.59" stroke-linecap="square" stroke-linejoin="round"/>
<path d="M239 214.668V228.937L230.07 237.371V223.102L239 214.668Z" stroke="black" stroke-width="4.59" stroke-linecap="square" stroke-linejoin="round"/>
<path d="M239.249 219.691L239.632 219.33L257.451 220.987L248.013 229.911L245.367 229.662" stroke="black" stroke-width="4.59" stroke-linecap="square" stroke-linejoin="round"/>
<path d="M245.21 229.645L248.013 229.911V244.978L244.941 244.681" stroke="black" stroke-width="4.59" stroke-linecap="square" stroke-linejoin="round"/>
<path d="M257.449 220.987V236.067L248.01 244.977V229.905L257.449 220.987Z" stroke="black" stroke-width="4.59" stroke-linecap="square" stroke-linejoin="round"/>
<path d="M221.698 187.739L214.116 194.905L199.794 193.572L207.385 186.407L221.698 187.739Z" stroke="black" stroke-width="4.59" stroke-linecap="square" stroke-linejoin="round"/>
<path d="M199.791 203.927V205.624L214.113 207.015V194.908L200.704 193.659L199.791 193.575V194.625V195.714" stroke="black" stroke-width="4.59" stroke-linecap="square" stroke-linejoin="round"/>
<path d="M221.698 187.74V199.856L214.116 207.012V194.905L221.698 187.74Z" stroke="black" stroke-width="4.59" stroke-linecap="square" stroke-linejoin="round"/>
<path d="M148.434 135.825C149.736 137.57 152.02 137.917 153.535 136.716" stroke="black" stroke-width="4.59" stroke-miterlimit="10"/>
<path d="M169.134 118.44C168.573 119.836 167.587 121.02 166.315 121.824C165.044 122.628 163.552 123.012 162.05 122.92C162.017 122.307 161.835 121.71 161.521 121.181C160.174 118.986 158.908 122.528 154.031 119.104C147.274 114.344 144.18 116.024 144.18 116.024C143.9 116.169 143.679 117.855 143.604 118.149C143.142 119.857 142.682 121.557 142.204 123.262C141.924 124.303 141.644 125.337 141.364 126.37C141.292 126.179 141.208 125.992 141.114 125.81C140.806 123.349 140.048 120.386 137.292 121.193C136.734 121.367 136.224 121.67 135.806 122.077C133.764 124.054 134.728 126.409 136.262 128.277C136.632 128.841 137.062 129.363 137.544 129.833C137.161 130.393 135.598 132.633 135.598 132.633C135.436 132.857 131.978 127.493 131.743 126.927C131.471 125.594 131.424 124.224 131.606 122.875C132.381 117.331 135.612 111.236 140.566 108.747C141.798 108.131 141.557 107.319 141.792 106.26C141.799 106.199 141.827 106.141 141.87 106.097C141.914 106.052 141.971 106.024 142.032 106.015C142.094 106.007 142.157 106.019 142.211 106.051C142.264 106.082 142.306 106.13 142.33 106.187C143.506 107.985 147 108.36 147 108.36C158.998 107.153 162.725 113.157 165.049 114.478C165.986 114.997 167.072 115.182 168.129 115.002C168.136 115.344 168.237 115.677 168.42 115.966C168.604 116.254 168.863 116.486 169.17 116.637L169.025 117.197C168.919 117.612 168.958 118.05 169.134 118.44Z" fill="#3FBDF1"/>
<path d="M162.041 122.921C163.54 123.012 165.03 122.63 166.3 121.829C167.57 121.027 168.557 119.847 169.12 118.455C169.339 117.922 169.51 117.371 169.629 116.808L169.54 116.783C169.411 116.752 169.286 116.703 169.17 116.64C168.863 116.489 168.604 116.257 168.42 115.968C168.236 115.68 168.135 115.347 168.128 115.005C168.119 114.816 168.14 114.627 168.19 114.445L168.915 111.763C168.915 111.763 166.488 113.051 164.211 111.735C161.935 110.419 158.687 104.432 146.162 105.617C146.162 105.617 143.41 105.362 142.242 103.531C142.218 103.474 142.176 103.428 142.122 103.397C142.069 103.367 142.007 103.356 141.946 103.364C141.885 103.373 141.829 103.401 141.786 103.445C141.743 103.489 141.715 103.545 141.708 103.606C141.472 104.665 140.957 105.359 139.728 105.975C134.764 108.467 131.53 114.563 130.768 120.104C130.482 122.417 130.816 124.766 131.737 126.908C131.972 127.468 135.43 132.838 135.592 132.614C135.592 132.614 137.155 130.374 137.538 129.814L137.631 129.691L137.51 129.582C137.063 129.169 136.644 128.727 136.256 128.257C134.722 126.39 133.758 124.035 135.8 122.058C136.218 121.65 136.728 121.347 137.286 121.173C140.042 120.367 140.8 123.329 141.108 125.791C141.168 126.26 141.176 126.736 141.134 127.207L141.358 126.367C141.638 125.334 141.918 124.301 142.198 123.259C142.665 121.554 143.124 119.855 143.598 118.147C143.673 117.853 143.906 116.167 144.174 116.021C144.174 116.021 147.268 114.358 154.025 119.101C158.902 122.526 160.168 118.984 161.515 121.179C161.83 121.707 162.011 122.304 162.044 122.918C162.051 123.115 162.045 123.312 162.027 123.509C162.031 123.535 162.031 123.561 162.027 123.587C161.988 124.015 161.932 124.444 161.876 124.861C161.316 128.887 160.224 133.017 158.076 136.509C155.472 140.74 149.716 144.43 144.76 141.515C143.217 140.605 141.895 139.312 140.714 137.973" stroke="black" stroke-width="4.59" stroke-miterlimit="10"/>
<path d="M158.399 131.529C158.708 130.926 158.555 130.23 158.057 129.975C157.559 129.719 156.905 130 156.595 130.603C156.286 131.205 156.439 131.901 156.937 132.157C157.435 132.413 158.09 132.131 158.399 131.529Z" fill="black"/>
<path d="M150.587 130.082C150.896 129.479 150.743 128.783 150.245 128.528C149.747 128.272 149.093 128.553 148.783 129.156C148.474 129.758 148.627 130.454 149.125 130.71C149.623 130.966 150.278 130.684 150.587 130.082Z" fill="black"/>
<path d="M151.917 132.527C151.917 132.527 154.305 134.408 154.697 132.893C154.82 132.426 156.167 127.879 156.167 127.879C156.167 127.879 158.62 125.963 161.604 128.108" stroke="black" stroke-width="4.59" stroke-miterlimit="10"/>
<path d="M153.493 126.137C153.493 126.137 149.596 123.388 146.348 126.003" stroke="black" stroke-width="4.59" stroke-miterlimit="10"/>
<path d="M134.582 131.34L132.56 137.858L130.25 137.424C128.797 139.849 130.67 147.686 133.148 150.304C140.218 157.797 144.567 149.148 144.567 149.148L145.6 146.387L147.098 142.394" stroke="black" stroke-width="4.59" stroke-miterlimit="10"/>
<path d="M195.818 111.367C196.345 111.84 196.767 112.418 197.056 113.065C197.345 113.711 197.496 114.411 197.498 115.119V115.919C197.5 116.486 197.621 117.045 197.852 117.562C198.083 118.078 198.42 118.541 198.84 118.92C199.261 119.299 199.756 119.585 200.294 119.762C200.832 119.938 201.401 120 201.964 119.943C204.055 119.73 205.584 117.829 205.584 115.715V115.116C205.583 114.413 205.728 113.718 206.011 113.075C206.294 112.431 206.709 111.854 207.228 111.381" stroke="#CCDDE2" stroke-width="4.59" stroke-linejoin="round"/>
<path d="M195.818 111.367C196.345 111.84 196.767 112.418 197.056 113.065C197.345 113.711 197.496 114.411 197.498 115.119V115.919C197.5 116.486 197.621 117.045 197.852 117.562C198.083 118.078 198.42 118.541 198.84 118.92C199.261 119.299 199.756 119.585 200.294 119.762C200.832 119.938 201.401 120 201.964 119.943C204.055 119.73 205.584 117.829 205.584 115.715V115.116C205.583 114.413 205.728 113.718 206.011 113.075C206.294 112.431 206.709 111.854 207.228 111.381" stroke="#CCDDE2" stroke-width="4.59" stroke-linejoin="round"/>
<path d="M195.818 111.367C195.55 111.134 195.259 110.928 194.95 110.751C192.582 109.392 190.693 107.334 189.542 104.858C188.39 102.382 188.033 99.6108 188.519 96.9242C189.006 94.2376 190.312 91.7675 192.258 89.8523C194.204 87.9374 196.695 86.6715 199.389 86.2282C202.083 85.7853 204.848 86.1868 207.305 87.3776C209.762 88.5685 211.79 90.4907 213.111 92.8799C214.432 95.2694 214.981 98.009 214.684 100.723C214.386 103.437 213.256 105.992 211.448 108.038C211.419 108.065 211.394 108.095 211.372 108.128C210.417 109.177 209.303 110.07 208.071 110.774C207.767 110.943 207.485 111.148 207.231 111.384" stroke="#CCDDE2" stroke-width="4.59" stroke-linejoin="round"/>
<path d="M200.124 110.505C199.27 108.954 197.831 106.899 196.817 105.435C195.715 103.881 194.814 102.194 194.138 100.414C194.048 100.222 194.013 100.009 194.037 99.7982C194.051 99.6937 194.105 99.5985 194.187 99.5327C194.27 99.4672 194.374 99.4358 194.479 99.4454C194.667 99.4818 194.759 99.6778 194.857 99.8486C195.26 100.649 195.833 101.35 196.537 101.904C196.932 102.209 197.492 102.464 197.904 102.184C198.029 102.074 198.129 101.94 198.198 101.788C198.267 101.637 198.303 101.473 198.304 101.307C198.428 100.128 198.12 98.9442 197.436 97.9754C197.156 97.5946 196.669 97.225 196.274 97.4742C195.879 97.7234 195.994 98.3394 196.229 98.7538C196.647 99.5218 197.217 100.197 197.905 100.737C198.592 101.278 199.383 101.673 200.228 101.898C200.642 102.037 201.09 102.042 201.507 101.912C201.739 101.807 201.942 101.646 202.097 101.445C202.253 101.243 202.357 101.007 202.401 100.756C202.484 100.252 202.441 99.7352 202.275 99.2522C202.045 98.499 201.6 97.729 200.852 97.477C200.618 97.386 200.358 97.386 200.124 97.477C199.969 97.5601 199.84 97.6856 199.752 97.8384C199.665 97.9913 199.622 98.166 199.629 98.3422C199.647 98.6947 199.755 99.0368 199.942 99.3362C200.376 100.093 200.987 100.734 201.723 101.203C202.459 101.672 203.298 101.956 204.167 102.03C204.748 102.112 205.339 101.971 205.819 101.635C206.02 101.449 206.181 101.225 206.294 100.976C206.407 100.727 206.469 100.458 206.477 100.185C206.541 99.365 206.31 98.5496 205.825 97.8858C205.727 97.7542 205.579 97.6058 205.419 97.659C205.259 97.7122 205.215 97.8914 205.195 98.051C205.122 98.6782 205.175 99.3135 205.35 99.9202C205.525 100.527 205.818 101.093 206.214 101.585C206.651 102.119 207.315 102.584 207.987 102.425C208.241 102.347 208.469 102.202 208.647 102.004C208.825 101.807 208.946 101.565 208.997 101.305C209.094 100.782 209.042 100.242 208.846 99.7478C208.605 99.8956 208.399 100.094 208.242 100.328C208.085 100.563 207.981 100.829 207.936 101.109C207.813 101.669 207.821 102.229 207.726 102.789C207.2 105.93 203.739 107.333 203.067 110.349" stroke="#CCDDE2" stroke-width="4.59" stroke-linejoin="round"/>
<path d="M201.524 81.3176L201.393 73.36" stroke="#CCDDE2" stroke-width="4.59" stroke-linejoin="round"/>
<path d="M186.346 88.7214L180.838 82.9786" stroke="#CCDDE2" stroke-width="4.59" stroke-linejoin="round"/>
<path d="M216.756 89.0795L222.387 83.4543" stroke="#CCDDE2" stroke-width="4.59" stroke-linejoin="round"/>
<path d="M219.763 164.259C221.356 164.259 222.647 162.968 222.647 161.375C222.647 159.782 221.356 158.491 219.763 158.491C218.171 158.491 216.879 159.782 216.879 161.375C216.879 162.968 218.171 164.259 219.763 164.259Z" fill="#3FBDF1"/>
</svg>
