<svg width="754" height="754" viewBox="0 0 754 754" fill="none" xmlns="http://www.w3.org/2000/svg">
<path d="M66.3521 418.854C65.8243 412.143 65.4171 405.425 65.0929 398.722" stroke="black" stroke-width="4.05" stroke-miterlimit="10"/>
<path d="M447.982 660.233H256.45" stroke="#CCDDE2" stroke-width="4.05" stroke-miterlimit="10"/>
<path d="M503.898 180.423C503.898 180.423 560.343 153.769 608.229 205.773C623.875 222.768 634.551 245.32 635.305 268.588C635.648 279.942 633.818 291.256 629.914 301.923C625.941 312.81 618.808 320.019 613.326 329.715C604.919 344.667 622.495 347.314 631.927 354.559C638.197 359.416 644.143 364.674 649.729 370.303C662.32 382.877 673.398 396.878 682.739 412.022C701.237 442.187 712.375 476.282 715.252 511.55C718.095 546.324 715.915 584.085 698.083 614.976C689.503 629.852 676.579 644.442 660.685 651.379C639.573 660.585 615.86 660.239 593.3 660.239H545.293" stroke="#CCDDE2" stroke-width="4.05" stroke-miterlimit="10"/>
<path d="M268.612 527.905C266.72 541.371 263.9 556.821 260.786 572.285L257.114 573.333C245.362 576.634 232.883 576.269 221.344 572.285L226.155 555.938L196.869 470.736C196.869 470.736 219.256 463.498 237.638 458.122L239.749 458.032C249.793 460.15 270.49 468.105 271.138 497.896C271.184 499.328 271.138 500.836 271.138 502.48C274.056 512.093 272.895 520.568 268.612 527.905Z" fill="#3FBDF1"/>
<path d="M199.682 203.581C199.393 202.846 198.828 202.254 198.108 201.931C197.387 201.608 196.569 201.58 195.829 201.854C195.414 201.979 195.03 202.193 194.705 202.48C193.544 203.422 193.28 205.074 193.243 206.642C193.137 210.223 192.934 213.813 192.67 217.379C192.67 217.62 192.632 217.892 192.632 218.133C192.466 221.006 192.587 224.489 191.365 226.992C191.287 227.183 191.153 227.346 190.981 227.46C190.574 227.648 190.144 227.241 189.88 226.872C189.126 225.771 188.372 224.693 187.618 223.569C187.022 222.672 186.351 221.699 185.311 221.413C183.765 220.983 182.295 222.348 181.443 223.735C178.69 228.259 178.427 235.671 182.687 239.464C186.947 243.256 177.409 250.713 170.577 253.85C169.434 254.493 168.236 255.033 166.996 255.463C166.936 255.463 169.462 256.029 169.401 256.052C164.086 257.902 158.548 259.04 152.934 259.437C146.268 259.882 139.769 259.045 135.041 256.15C135.245 255.396 136.859 250.118 136.957 249.364C137.303 246.732 137.552 244.123 137.711 241.477C137.997 236.508 137.975 231.532 137.786 226.578C137.1 208.753 140.274 193.779 147.633 191.494C148.215 191.32 148.772 191.074 149.292 190.763C152.61 188.931 154.382 185.063 152.858 181.413C152.753 181.164 152.632 180.923 152.527 180.659C152.408 180.399 152.272 180.147 152.12 179.905C166.491 175.441 176.248 178.54 186.11 183.939C187.987 185.439 189.751 187.074 191.388 188.833C195.248 193.023 198.087 198.05 199.682 203.52V203.581Z" fill="#3FBDF1"/>
<path d="M545.142 374.956H496.132V257.814C496.132 257.814 487.084 359.597 462.292 417.263H310.505C328.397 405.893 342.746 388.716 352.299 370.228C356.069 362.915 362.101 352.057 372.129 354.907C374.512 355.578 378.018 356.008 379.79 353.829C380.401 352.993 380.748 351.992 380.785 350.956C381.645 340.279 370.576 331.292 361.453 328.457C352.329 325.622 341.668 326.949 334.407 333.576C329.174 338.364 325.894 344.721 322.064 350.609C319.765 354.099 317.04 357.288 313.951 360.102C317.886 336.2 321.393 313.354 321.898 304.947C331.496 297.369 338.546 285.011 341.049 274.078C343.801 262.135 346.229 250.455 350.504 239.274L385.498 239.394C386.816 239.394 388.079 238.871 389.011 237.939C389.943 237.007 390.466 235.743 390.466 234.425V176.307C390.469 175.001 389.953 173.748 389.033 172.821C388.113 171.894 386.864 171.369 385.558 171.361L361.732 171.157C370.39 169.348 379.171 168.176 388.001 167.651C388.182 167.651 388.348 167.651 388.506 167.651C394.319 167.267 404.506 167.101 410.372 167.04C403.382 170.81 399.062 178.818 399.816 185.89C399.949 187.397 400.334 188.87 400.955 190.249C406.926 203.368 422.655 207.244 435.639 203.428C450.085 199.214 460.702 185.928 460.068 170.645C469.116 171.972 478.074 173.655 486.941 175.696C500.415 178.795 513.557 182.972 524.211 192.081C533.5 199.99 541.372 210.177 545.014 221.69C560.652 270.919 555.841 325.855 545.142 374.956Z" fill="#2E2E2E"/>
<path d="M322.29 304.949C321.189 322.939 318.354 340.914 315.278 358.844" stroke="black" stroke-width="4.05" stroke-miterlimit="10"/>
<path d="M350.897 239.274C346.614 250.456 344.193 262.136 341.441 274.079C338.915 284.974 331.881 297.37 322.29 304.948C314.237 311.304 304.375 314.297 293.819 310.286C279.659 304.887 274.69 289.28 272.956 275.519C270.702 258.384 270.565 241.038 272.548 223.87C274.547 228.311 282.712 241.823 308.039 238.272C308.719 238.78 309.537 239.072 310.384 239.108L350.897 239.274Z" fill="#2E2E2E"/>
<path d="M336.676 200.618C342.572 199.11 346.161 204.78 345.287 209.093C343.862 216.128 333.743 218.895 327.719 219.023C322.893 219.121 311.131 217.847 306.335 217.289" stroke="black" stroke-width="4.05" stroke-miterlimit="10"/>
<path d="M304.352 204.101C311.646 206.209 319.371 206.337 326.731 204.47C332.921 202.88 340.235 199.946 343.477 194.058C345.37 190.635 343.862 185.176 339.911 183.969C335.349 182.589 331.127 187.128 326.995 188.275C324.329 189.001 321.608 189.505 318.859 189.783C318.105 189.865 317.396 189.926 316.665 189.986C312.817 190.295 308.949 190.267 305.106 189.903C304.697 189.903 304.299 189.774 303.968 189.535C303.636 189.295 303.388 188.958 303.26 188.569C303.131 188.182 303.128 187.763 303.251 187.373C303.374 186.983 303.617 186.641 303.945 186.397L304.639 185.892" stroke="black" stroke-width="4.05" stroke-miterlimit="10"/>
<path d="M350.897 239.274C346.614 250.455 344.193 262.135 341.441 274.078C336.797 294.127 316.989 319.107 293.819 310.27C279.659 304.872 274.69 289.264 272.956 275.503C270.241 254.195 270.467 232.307 274.464 211.18C277.781 193.777 283.67 175.5 300.605 166.942L308.552 162.969C310.447 162.011 312.642 161.833 314.667 162.473C316.692 163.113 318.386 164.52 319.387 166.392C319.997 167.556 320.32 168.848 320.329 170.162C320.337 170.354 320.322 170.546 320.284 170.735" stroke="black" stroke-width="4.05" stroke-miterlimit="10"/>
<path d="M512.313 402.833C516.407 402.706 520.505 402.809 524.588 403.142C527.921 403.413 531.374 403.572 534.548 404.816C537.165 405.856 539.894 408.337 539.758 411.368C539.51 417.31 531.728 417.264 527.461 417.264" stroke="black" stroke-width="4.05" stroke-miterlimit="10"/>
<path opacity="0.54" d="M439.084 397.169L474.568 306.26C475.007 304.498 475.038 302.659 474.66 300.883C474.281 299.107 473.502 297.441 472.382 296.011C471.263 294.582 469.832 293.427 468.199 292.633C466.565 291.841 464.772 291.431 462.956 291.436H322.048C318.89 291.443 315.826 292.512 313.349 294.47C310.871 296.428 309.123 299.162 308.386 302.233L269.495 393.121C269.073 394.875 269.054 396.702 269.44 398.465C269.827 400.228 270.608 401.88 271.725 403.297C272.842 404.715 274.266 405.861 275.889 406.649C277.513 407.436 279.294 407.845 281.099 407.846H425.414C428.557 407.844 431.608 406.793 434.085 404.858C436.562 402.924 438.321 400.218 439.084 397.169Z" fill="white"/>
<path d="M439.084 397.169L474.568 306.26C475.007 304.498 475.038 302.659 474.66 300.883C474.281 299.107 473.502 297.441 472.382 296.011C471.263 294.582 469.832 293.427 468.199 292.633C466.565 291.841 464.772 291.431 462.956 291.436H322.048C318.89 291.443 315.826 292.512 313.349 294.47C310.871 296.428 309.123 299.162 308.386 302.233L269.495 393.121C269.073 394.875 269.054 396.702 269.44 398.465C269.827 400.228 270.608 401.88 271.725 403.297C272.842 404.715 274.266 405.861 275.889 406.649C277.513 407.436 279.294 407.845 281.099 407.846H425.414C428.557 407.844 431.608 406.793 434.085 404.858C436.562 402.924 438.321 400.218 439.084 397.169Z" fill="#3FBDF1"/>
<path d="M439.084 397.169L474.568 306.26C475.007 304.498 475.038 302.659 474.66 300.883C474.281 299.107 473.502 297.441 472.382 296.011C471.263 294.582 469.832 293.427 468.199 292.633C466.565 291.841 464.772 291.431 462.956 291.436H322.048C318.89 291.443 315.826 292.512 313.349 294.47C310.871 296.428 309.123 299.162 308.386 302.233L269.495 393.121C269.073 394.875 269.054 396.702 269.44 398.465C269.827 400.228 270.608 401.88 271.725 403.297C272.842 404.715 274.266 405.861 275.889 406.649C277.513 407.436 279.294 407.845 281.099 407.846H425.414C428.557 407.844 431.608 406.793 434.085 404.858C436.562 402.924 438.321 400.218 439.084 397.169Z" stroke="black" stroke-width="4.05" stroke-linecap="square" stroke-linejoin="round"/>
<path d="M433.889 393.49L466.628 309.623C467.034 307.999 467.064 306.305 466.717 304.668C466.369 303.031 465.654 301.495 464.623 300.176C463.593 298.858 462.277 297.792 460.772 297.059C459.268 296.325 457.617 295.944 455.944 295.945H325.917C322.998 295.944 320.163 296.926 317.871 298.733C315.578 300.541 313.96 303.067 313.279 305.905L277.472 389.758C277.086 391.376 277.072 393.06 277.43 394.684C277.787 396.308 278.509 397.831 279.539 399.137C280.569 400.443 281.881 401.498 283.378 402.224C284.874 402.95 286.516 403.328 288.179 403.33H421.282C424.181 403.332 426.996 402.365 429.281 400.581C431.566 398.798 433.187 396.302 433.889 393.49Z" fill="#3FBDF1"/>
<path d="M335.296 311.403C337.023 308.817 339.82 307.633 341.6 308.832C343.379 310.03 343.379 313.046 341.66 315.618C341.389 316.013 341.086 316.387 340.755 316.734L353.528 343.704C355.564 342.347 357.803 342.008 359.417 343.078C359.934 343.456 360.362 343.941 360.672 344.501C360.982 345.061 361.166 345.682 361.211 346.32L369.943 343.38L377.573 340.809L380.061 339.994C380.376 339.057 380.812 338.165 381.358 337.34C383.778 333.699 387.737 332.062 390.203 333.721C392.668 335.38 392.698 339.565 390.346 343.176L404.898 363.044C408.072 360.443 411.805 359.636 414.391 361.355C417.912 363.7 417.965 369.815 414.512 375.003C414.368 375.214 414.21 375.38 414.067 375.576L423.748 388.816L423.839 388.944C424.333 389.691 424.511 390.604 424.333 391.482C424.155 392.36 423.636 393.132 422.888 393.626C422.141 394.122 421.229 394.3 420.351 394.121C419.472 393.943 418.701 393.424 418.206 392.676L409.611 379.7C406.889 381.276 403.993 381.578 401.874 380.168C398.512 377.906 398.346 372.266 401.347 367.236L387.42 346.215C385.362 347.61 383.092 347.964 381.464 346.886C380.559 346.244 379.941 345.272 379.745 344.179L378.704 344.466L370.945 346.584L361.008 349.269C360.698 350.459 360.187 351.589 359.5 352.609C357.079 356.243 353.121 357.887 350.655 356.228C348.19 354.569 348.152 350.309 350.572 346.667C350.927 346.133 351.326 345.628 351.764 345.159L339.602 317.684C338.139 318.686 336.518 318.943 335.357 318.166C333.607 317.005 333.577 313.959 335.296 311.403Z" fill="#D7E8F0"/>
<path d="M427.82 312.848H446.67C447.531 312.847 448.374 312.596 449.095 312.124C449.817 311.653 450.386 310.983 450.734 310.194C450.837 309.956 450.893 309.7 450.9 309.44C450.897 308.926 450.691 308.433 450.327 308.069C449.962 307.707 449.468 307.502 448.954 307.502H428.92C429.863 309.078 429.388 311.287 427.82 312.848Z" fill="#D7E8F0"/>
<path d="M415.635 310.919C415.637 311.431 415.842 311.922 416.205 312.283C416.568 312.645 417.06 312.849 417.573 312.849H427.82C429.388 311.288 429.863 309.079 428.92 307.488H419.872C419.011 307.487 418.169 307.738 417.448 308.207C416.726 308.677 416.156 309.347 415.808 310.135C415.698 310.381 415.638 310.648 415.635 310.919Z" fill="#3FBDF1"/>
<path d="M420.347 312.85C420.403 312.954 420.465 313.052 420.536 313.145C421.878 314.984 424.796 315.158 427.058 313.506C427.327 313.308 427.578 313.089 427.812 312.85C429.38 311.29 429.855 309.08 428.913 307.49C428.864 307.385 428.803 307.287 428.732 307.195C427.397 305.348 424.479 305.19 422.217 306.826C421.95 307.028 421.698 307.25 421.463 307.49C419.895 309.058 419.42 311.252 420.347 312.85Z" fill="white"/>
<path d="M410.93 322.75C410.934 323.263 411.14 323.754 411.505 324.115C411.869 324.477 412.362 324.68 412.875 324.68H432.653C431.695 323.081 432.17 320.91 433.738 319.319H415.137C414.275 319.32 413.43 319.571 412.708 320.042C411.985 320.513 411.415 321.184 411.066 321.973C410.971 322.221 410.925 322.484 410.93 322.75Z" fill="#3FBDF1"/>
<path d="M432.623 324.679H441.927C442.787 324.679 443.629 324.43 444.35 323.961C445.071 323.493 445.641 322.826 445.991 322.04C446.097 321.803 446.156 321.546 446.164 321.286C446.165 321.031 446.116 320.779 446.019 320.544C445.922 320.308 445.779 320.094 445.599 319.914C445.419 319.734 445.205 319.591 444.969 319.494C444.734 319.397 444.481 319.348 444.227 319.348H433.708C432.14 320.887 431.665 323.081 432.623 324.679Z" fill="#D7E8F0"/>
<path d="M432.623 324.68C432.666 324.784 432.722 324.883 432.789 324.974C434.123 326.821 437.041 326.987 439.303 325.343C439.571 325.141 439.823 324.919 440.057 324.68C441.61 323.112 442.085 320.91 441.158 319.319C441.103 319.217 441.043 319.119 440.977 319.025C439.627 317.185 436.709 317.019 434.447 318.671C434.18 318.867 433.927 319.083 433.693 319.319C432.14 320.887 431.665 323.081 432.623 324.68Z" fill="white"/>
<path d="M426.01 336.427H437.848C438.71 336.426 439.553 336.175 440.275 335.706C440.997 335.237 441.569 334.568 441.919 333.781C442.023 333.542 442.079 333.286 442.085 333.027C442.085 332.51 441.88 332.014 441.516 331.648C441.151 331.283 440.656 331.075 440.14 331.074H427.133C428.068 332.665 427.586 334.859 426.01 336.427Z" fill="#3FBDF1"/>
<path d="M406.843 334.505C406.844 334.759 406.895 335.009 406.993 335.243C407.091 335.476 407.234 335.689 407.414 335.868C407.594 336.046 407.808 336.188 408.042 336.283C408.277 336.38 408.528 336.429 408.781 336.427H426.01C427.563 334.859 428.046 332.657 427.111 331.059H411.081C410.217 331.058 409.373 331.31 408.651 331.783C407.929 332.255 407.361 332.929 407.017 333.72C406.906 333.967 406.846 334.235 406.843 334.505Z" fill="#D7E8F0"/>
<path d="M418.561 336.427C418.616 336.531 418.678 336.629 418.749 336.721C420.084 338.569 422.994 338.727 425.264 337.083C425.531 336.884 425.784 336.666 426.018 336.427C427.571 334.859 428.053 332.657 427.118 331.059C427.069 330.955 427.008 330.856 426.937 330.765C425.588 328.932 422.677 328.774 420.408 330.41C420.142 330.609 419.89 330.825 419.654 331.059C418.101 332.627 417.618 334.836 418.561 336.427Z" fill="white"/>
<path d="M349.487 391.83H361.332C362.192 391.828 363.034 391.577 363.755 391.108C364.477 390.638 365.046 389.97 365.396 389.183C365.499 388.945 365.556 388.689 365.562 388.429C365.562 387.913 365.357 387.419 364.992 387.054C364.627 386.689 364.132 386.484 363.617 386.484H350.61C351.522 388.067 351.04 390.261 349.487 391.83Z" fill="#3FBDF1"/>
<path d="M302.482 389.908C302.483 390.161 302.534 390.411 302.632 390.646C302.729 390.88 302.873 391.092 303.053 391.27C303.232 391.449 303.446 391.59 303.68 391.686C303.916 391.782 304.167 391.831 304.42 391.83H349.487C351.04 390.262 351.522 388.06 350.587 386.469H306.72C305.858 386.469 305.014 386.719 304.292 387.19C303.57 387.662 303.002 388.333 302.656 389.124C302.548 389.371 302.489 389.637 302.482 389.908Z" fill="#D7E8F0"/>
<path d="M342.014 391.831C342.07 391.934 342.132 392.033 342.203 392.125C343.538 393.973 346.448 394.131 348.718 392.495C348.984 392.291 349.236 392.069 349.472 391.831C351.025 390.263 351.507 388.061 350.572 386.47C350.523 386.365 350.462 386.267 350.391 386.176C349.042 384.336 346.131 384.178 343.862 385.814C343.593 386.013 343.341 386.232 343.108 386.47C341.562 388.031 341.072 390.24 342.014 391.831Z" fill="white"/>
<path d="M51.4078 420.868C51.4078 420.868 26.5258 533.267 90.5328 556.747C154.54 580.226 327.44 558.172 255.583 477.072C183.727 395.971 51.4078 420.868 51.4078 420.868Z" fill="#2E2E2E"/>
<path d="M361.98 171.158C370.68 169.343 379.5 168.167 388.37 167.637C388.559 167.637 388.717 167.637 388.883 167.637C394.712 167.252 404.921 167.086 410.749 167.026" stroke="black" stroke-width="4.05" stroke-miterlimit="10"/>
<path d="M318.86 189.761C318.799 189.798 318.761 189.844 318.701 189.882" stroke="black" stroke-width="4.05" stroke-miterlimit="10"/>
<path d="M418.055 142.505C413.607 144.843 408.495 143.259 406.534 139.278" stroke="black" stroke-width="4.05" stroke-miterlimit="10"/>
<path d="M392.231 85.6913C392.03 89.1507 392.918 92.5859 394.769 95.5145C396.621 98.4438 399.343 100.719 402.553 102.023C403.232 100.777 404.205 99.7157 405.388 98.9316C410.387 95.6969 409.497 104.338 423.069 102.061C441.882 98.8863 446.677 105.439 446.677 105.439C447.092 106.012 445.923 109.751 445.757 110.438C445.003 114.456 444.249 118.453 443.563 122.502C443.121 124.954 442.673 127.392 442.221 129.815C442.563 129.484 442.926 129.174 443.307 128.888C446.398 124.062 450.93 118.649 455.868 123.067C456.86 123.987 457.62 125.129 458.085 126.4C460.347 132.545 456.019 136.496 450.96 138.863C449.625 139.671 448.207 140.331 446.73 140.831C446.979 142.385 448.012 148.575 448.012 148.59C448.117 149.223 460.679 141.48 461.727 140.537C463.621 138.033 465.081 135.23 466.047 132.243C469.953 119.923 469.29 103.998 461.425 93.8647C459.473 91.3539 460.777 89.9062 461.342 87.4632C461.37 87.3313 461.357 87.1948 461.306 87.0712C461.254 86.9468 461.167 86.8412 461.054 86.7673C460.943 86.6934 460.811 86.655 460.677 86.6565C460.542 86.6587 460.412 86.7002 460.302 86.7771C456.064 89.4387 448.396 86.7168 448.396 86.7168C423.514 71.7723 410.764 81.0165 404.664 81.484C402.19 81.6537 399.735 80.9547 397.72 79.5085C397.366 80.2083 396.827 80.7979 396.164 81.2148C395.499 81.6318 394.734 81.8603 393.95 81.8761L393.709 83.173C393.524 84.1585 393.001 85.0489 392.231 85.6913Z" fill="#3FBDF1"/>
<path d="M402.568 102.053C399.358 100.75 396.636 98.4747 394.784 95.5454C392.933 92.6161 392.045 89.1809 392.246 85.7215C392.32 84.393 392.511 83.0735 392.819 81.7781L393.038 81.8233C393.335 81.8904 393.639 81.9131 393.942 81.8912C394.727 81.8761 395.492 81.6477 396.156 81.2307C396.82 80.8137 397.358 80.2233 397.712 79.5236C397.92 79.1346 398.065 78.7146 398.142 78.2795L399.303 71.9687C399.303 71.9687 403.073 77.0731 409.105 76.5981C415.137 76.1231 427.887 66.8792 452.837 81.8309C452.837 81.8309 458.824 84.0401 463.062 81.3785C463.172 81.3023 463.302 81.2601 463.436 81.2586C463.571 81.2571 463.702 81.2955 463.814 81.3694C463.926 81.4433 464.014 81.5489 464.065 81.6725C464.116 81.7969 464.129 81.9334 464.102 82.0646C463.537 84.5 463.914 86.468 465.866 88.9788C473.731 99.1126 474.394 115.037 470.488 127.357C468.778 132.463 465.742 137.022 461.689 140.567C460.641 141.51 448.08 149.254 447.974 148.62C447.974 148.62 446.941 142.415 446.692 140.862L446.632 140.507L446.986 140.402C448.33 139.986 449.645 139.482 450.922 138.894C455.981 136.526 460.332 132.575 458.047 126.43C457.582 125.16 456.822 124.018 455.831 123.097C450.892 118.679 446.36 124.093 443.269 128.918C442.671 129.834 442.181 130.816 441.806 131.844C441.927 131.18 442.048 130.532 442.176 129.868C442.628 127.44 443.075 125.003 443.518 122.554C444.272 118.528 444.973 114.532 445.712 110.49C445.848 109.804 447.047 106.064 446.632 105.491C446.632 105.491 441.836 98.9391 423.024 102.113C409.452 104.375 410.342 95.7497 405.343 98.9844C404.16 99.7685 403.187 100.83 402.508 102.076C402.297 102.482 402.111 102.9 401.95 103.327C401.923 103.381 401.9 103.437 401.882 103.493C401.543 104.428 401.234 105.371 400.932 106.291C398.112 115.256 396.25 124.937 397.245 134.355C398.459 145.77 406.775 159.191 420.008 158.053C424.172 157.565 428.233 156.425 432.042 154.675" stroke="black" stroke-width="4.05" stroke-miterlimit="10"/>
<path d="M404.012 126.383C405.307 126.346 406.32 125.048 406.276 123.483C406.232 121.917 405.147 120.678 403.852 120.715C402.558 120.752 401.543 122.05 401.588 123.615C401.632 125.181 402.717 126.419 404.012 126.383Z" fill="black"/>
<path d="M421.73 131.145C423.025 131.109 424.038 129.81 423.995 128.246C423.95 126.68 422.865 125.441 421.57 125.478C420.276 125.515 419.262 126.813 419.306 128.378C419.351 129.943 420.436 131.182 421.73 131.145Z" fill="black"/>
<path d="M414.082 132.19C414.082 132.19 407.228 133.698 407.922 130.184C408.133 129.083 409.852 118.271 409.852 118.271C409.852 118.271 406.655 111.832 398.293 113.332" stroke="black" stroke-width="4.05" stroke-miterlimit="10"/>
<path d="M417.158 117.309C417.158 117.309 428.023 115.462 432.185 124.14" stroke="black" stroke-width="4.05" stroke-miterlimit="10"/>
<path d="M410.87 166.934C402.312 171.458 397.743 182.346 401.324 190.225C407.296 203.352 423.017 207.213 436.008 203.42C450.455 199.198 461.071 185.882 460.438 170.614" stroke="black" stroke-width="4.05" stroke-miterlimit="10"/>
<path d="M462.685 417.257C487.499 359.591 496.509 257.808 496.509 257.808V399.817C496.508 402.107 496.958 404.375 497.835 406.492C498.711 408.608 499.996 410.531 501.615 412.151C503.235 413.77 505.157 415.055 507.274 415.931C509.39 416.807 511.658 417.258 513.949 417.257H568.991C571.055 417.289 573.057 416.558 574.614 415.204C576.171 413.85 577.174 411.968 577.428 409.92C577.539 408.792 577.412 407.653 577.056 406.577C576.699 405.501 576.121 404.512 575.359 403.673C574.596 402.834 573.667 402.164 572.63 401.706C571.593 401.249 570.471 401.013 569.338 401.016H546.793C545.895 401.013 545.008 400.805 544.201 400.407C543.395 400.01 542.69 399.434 542.14 398.723C541.59 398.011 541.21 397.184 541.028 396.303C540.847 395.422 540.869 394.512 541.093 393.642C554.665 340.108 563.057 277.269 545.391 221.662C541.742 210.186 533.877 199.962 524.588 192.06C513.926 182.951 500.784 178.774 487.318 175.683C478.436 173.647 469.476 171.963 460.438 170.631C460.411 170.64 460.382 170.64 460.355 170.631C460.294 170.631 460.234 170.631 460.196 170.631H460.136H460.053H459.932" stroke="black" stroke-width="4.05" stroke-miterlimit="10"/>
<path d="M454.752 145.009L453.757 163.022C453.662 164.783 454.215 166.517 455.31 167.898C456.407 169.278 457.971 170.21 459.706 170.517H459.932C459.972 170.507 460.014 170.507 460.053 170.517H460.091H460.196" stroke="black" stroke-width="4.05" stroke-miterlimit="10"/>
<path d="M460.355 170.6H460.196H460.136H460.091H460.053H459.932H459.706C457.971 170.293 456.407 169.361 455.31 167.981C454.215 166.599 453.662 164.865 453.757 163.105L454.752 145.092" stroke="black" stroke-width="4.05" stroke-miterlimit="10"/>
<path d="M412.295 156.931C411.805 156.735 412.295 177.047 400.178 185.869" stroke="black" stroke-width="4.05" stroke-miterlimit="10"/>
<path d="M250.072 417.262H211.256" stroke="black" stroke-width="4.05" stroke-miterlimit="10"/>
<path d="M629.281 417.262H310.505" stroke="black" stroke-width="4.05" stroke-miterlimit="10"/>
<path d="M137.794 226.553C138.167 234.158 137.895 241.781 136.979 249.339C135.803 258.221 127.592 269.508 125.812 278.292C123.271 290.929 127.117 303.989 132.395 315.721C138.774 329.904 148.825 344.169 147.844 360.41C147.342 367.484 145.238 374.35 141.689 380.49C138.142 386.629 133.243 391.882 127.366 395.848C119.315 401.235 110.119 404.669 100.508 405.877C99.1661 406.035 97.8013 406.163 96.4366 406.201C95.6826 406.201 94.9286 406.118 94.1746 406.058C68.614 403.894 42.3974 384.395 42.4577 357.251C42.4577 339.909 55.6376 326.337 57.8619 309.508C59.2266 299.216 56.2107 288.524 59.0005 278.534C63.5245 262.579 81.0098 253.878 88.6704 239.19C94.3103 228.347 95.2302 215.695 99.6939 204.325C105.907 188.491 115.829 170.395 129.401 168.887C133.34 169.333 137.147 170.575 140.591 172.536C149.005 177.06 151.147 177.347 152.858 181.381C154.608 185.596 151.999 190.097 147.641 191.447C140.282 193.776 137.107 208.728 137.794 226.553Z" fill="#3FBDF1"/>
<path d="M145.19 174.99C167.282 168.588 181.322 178.006 191.365 188.863C201.408 199.721 200.941 212.049 200.941 212.049" stroke="black" stroke-width="4.05" stroke-miterlimit="10"/>
<path d="M213.714 387.344C213.38 404.604 211.194 421.778 207.192 438.571" stroke="black" stroke-width="4.05" stroke-miterlimit="10"/>
<path d="M268.613 527.904C260.522 541.823 241.333 551.708 217.853 557.86C176.187 568.778 121.025 567.926 90.5479 556.737C26.503 533.265 51.4001 420.866 51.4001 420.866C51.4001 420.866 162.17 400.018 236.032 458.566C243.088 464.144 249.638 470.333 255.606 477.062C263.772 486.298 268.786 494.751 271.153 502.472C274.056 512.093 272.895 520.568 268.613 527.904Z" stroke="black" stroke-width="4.05" stroke-miterlimit="10"/>
<path d="M226.155 555.963C226.155 555.963 187.346 663.687 252.545 691.201C317.743 718.714 13.1195 722.379 80.3613 691.201C147.603 660.023 108.953 562.546 108.953 562.546" stroke="black" stroke-width="4.05" stroke-miterlimit="10"/>
<path d="M305.099 189.881C304.292 187.415 304.624 178.842 304.887 174.001C304.938 173.087 305.343 172.229 306.015 171.608C306.688 170.988 307.576 170.653 308.492 170.676L385.95 171.355C387.256 171.367 388.505 171.894 389.424 172.821C390.343 173.749 390.859 175.003 390.859 176.309V234.434C390.859 235.087 390.73 235.733 390.479 236.335C390.229 236.938 389.862 237.485 389.4 237.945C388.937 238.406 388.388 238.77 387.784 239.017C387.181 239.265 386.534 239.391 385.882 239.388L310.399 239.109C309.306 239.064 308.272 238.598 307.514 237.809C306.757 237.018 306.334 235.966 306.335 234.872V230.438C311.704 232.942 321.852 233.711 321.852 233.711C325.464 233.613 331.172 233.175 334.301 231.381C337.166 229.737 340.785 227.377 341.275 223.803C341.465 222.421 341.099 221.02 340.258 219.906C339.418 218.793 338.171 218.058 336.789 217.862C335.959 217.696 335.1 217.756 334.301 218.035" stroke="black" stroke-width="4.05" stroke-miterlimit="10"/>
<path d="M380.695 350.958C380.658 351.994 380.309 352.996 379.692 353.83C377.92 356.009 374.414 355.58 372.031 354.909C362.01 352.058 355.994 362.916 352.208 370.23C342.648 388.718 328.307 405.894 310.414 417.264C309.253 418.018 308.069 418.727 306.87 419.421C289.385 429.509 266.728 427.632 249.815 417.159L271.44 364.039L273.581 365.751C286.641 376.058 302.716 370.275 313.845 360.104C316.934 357.29 319.66 354.1 321.958 350.611C325.788 344.722 329.068 338.366 334.309 333.578C341.562 326.95 352.178 325.653 361.347 328.458C370.516 331.263 381.524 340.281 380.695 350.958Z" fill="white"/>
<path d="M380.604 347.194C380.604 347.194 378.146 334.18 355.986 344.337" stroke="black" stroke-width="4.05" stroke-miterlimit="10"/>
<path d="M368.276 331.573C368.276 331.573 354.463 327.155 346.772 337.711" stroke="black" stroke-width="4.05" stroke-miterlimit="10"/>
<path d="M89.4395 406.083C93.1273 406.412 96.84 406.351 100.516 405.902C110.124 404.678 119.315 401.237 127.366 395.851C133.243 391.884 138.141 386.632 141.689 380.493C145.237 374.353 147.342 367.487 147.844 360.414C148.825 344.165 138.796 329.899 132.395 315.716C127.117 303.977 123.271 290.917 125.82 278.295C127.592 269.504 135.788 258.223 136.972 249.333C137.892 241.775 138.17 234.153 137.801 226.548C137.115 208.715 140.282 193.749 147.641 191.472C151.999 190.123 154.615 185.614 152.858 181.406C151.177 177.365 149.013 177.124 140.591 172.547C118.634 160.603 103.366 182.869 94.9362 204.335C90.4649 215.713 89.5601 228.35 83.9127 239.193C76.252 253.888 58.729 262.567 54.2502 278.552C51.4529 288.535 54.4689 299.234 53.1117 309.511C50.8949 326.333 37.7376 339.897 37.6999 357.254C37.6396 384.391 63.8864 403.904 89.4395 406.083Z" stroke="black" stroke-width="4.05" stroke-miterlimit="10"/>
<path d="M268.612 527.906C266.72 541.373 263.9 556.822 260.794 572.287C251.987 616.117 240.782 660.211 240.782 660.211" stroke="black" stroke-width="4.05" stroke-miterlimit="10"/>
<path d="M271.123 502.472C271.161 500.829 271.184 499.321 271.123 497.888C270.452 466.974 248.224 459.585 238.664 457.813C237.237 457.534 235.794 457.35 234.343 457.263" stroke="black" stroke-width="4.05" stroke-miterlimit="10"/>
<path d="M244.1 646.842C245.331 646.089 246.74 645.677 248.182 645.649C249.625 645.622 251.049 645.98 252.307 646.685C253.566 647.391 254.613 648.42 255.341 649.666C256.07 650.912 256.453 652.329 256.451 653.772C256.451 653.877 256.451 654.005 256.451 654.156C256.33 657.879 255.349 661.524 253.585 664.806C251.819 668.086 249.319 670.914 246.279 673.066L235.798 680.523" stroke="black" stroke-width="4.05" stroke-miterlimit="10"/>
<path d="M125.043 288.261C126.506 287.665 127.999 287.138 129.507 286.647C132.681 280.781 132.191 267.941 131.89 263.273L135.064 256.118C143.825 261.501 155.422 259.481 166.182 255.733C167.693 255.206 169.162 254.565 170.577 253.818C177.409 250.682 186.984 243.262 182.687 239.432C178.389 235.602 178.69 228.227 181.443 223.703C182.279 222.316 183.765 220.951 185.311 221.381C186.351 221.668 187.022 222.64 187.618 223.538C188.372 224.661 189.126 225.739 189.88 226.84C190.144 227.21 190.573 227.594 190.981 227.428C191.153 227.315 191.287 227.152 191.365 226.961C192.692 224.231 192.443 220.318 192.67 217.325C192.933 213.758 193.137 210.169 193.243 206.588C193.303 204.612 193.71 202.493 195.829 201.8C196.256 201.635 196.716 201.57 197.173 201.609C197.629 201.648 198.071 201.791 198.465 202.026C198.858 202.262 199.192 202.584 199.442 202.968C199.692 203.352 199.851 203.788 199.908 204.243C201.45 212.908 201.676 221.757 200.579 230.489C199.539 239.636 197.661 249.339 191.795 256.714C188.453 260.968 183.975 264.188 178.879 266.003C173.948 267.714 174.106 273.664 174.106 278.881V287.545C189.269 290.621 203.512 294.331 215.29 304.887C223.078 312.007 230.407 319.615 237.231 327.665C258.712 352.871 263.357 357.599 273.702 365.75C286.761 376.057 302.844 370.274 313.966 360.102C317.049 357.287 319.77 354.098 322.064 350.609C325.894 344.72 329.174 338.364 334.407 333.576C341.668 326.949 352.284 325.652 361.452 328.457C370.621 331.262 381.645 340.279 380.77 350.956C380.733 351.992 380.386 352.993 379.775 353.829C378.003 356.008 374.497 355.578 372.114 354.907C362.086 352.057 356.076 362.915 352.284 370.228C342.731 388.716 328.382 405.893 310.49 417.263C309.328 418.017 308.152 418.726 306.946 419.419C286.957 430.955 260.16 426.839 242.969 412.143L201.499 376.939" stroke="black" stroke-width="4.05" stroke-miterlimit="10"/>
<path d="M129.507 286.649C129.507 286.649 149.315 280.526 174.106 287.569" stroke="black" stroke-width="4.05" stroke-miterlimit="10"/>
<path d="M306.335 230.438C306.335 230.438 306.486 256.074 312.601 265.944" stroke="black" stroke-width="4.05" stroke-miterlimit="10"/>
<path d="M326.429 113.1C321.724 121.13 321.943 126.83 323.164 136.082C323.265 136.87 323.142 137.67 322.807 138.391C322.473 139.111 321.942 139.723 321.275 140.155C320.608 140.587 319.833 140.822 319.038 140.832C318.245 140.842 317.463 140.628 316.786 140.214C289.642 124.591 264.239 136.949 231.832 129.296C219.934 126.499 205.103 120.715 194.932 111.403C191.557 106.392 189.756 100.487 189.759 94.446C189.759 69.119 224.36 48.58 267.022 48.58C294.369 48.58 318.392 57.0173 332.129 69.7297C332.129 69.7297 332.129 69.7297 332.167 69.7749C335.614 74.7303 337.495 80.6064 337.566 86.6421C337.566 95.758 330.81 105.56 326.429 113.1Z" fill="#D7E8F0"/>
<path d="M337.445 86.658V87.2989C337.287 96.1735 332.846 104.422 327.575 111.563C324.047 116.343 319.862 121.644 320.857 127.502C321.295 130.081 322.735 132.426 323.119 135.042C323.504 137.659 322.101 140.863 319.485 140.999C317.826 141.082 316.409 139.898 315.097 138.88C307.308 132.848 297.189 130.586 287.349 130.194C277.51 129.802 267.685 131.091 257.838 131.37C243.648 131.777 229.231 130.005 216.119 124.584C204.334 119.668 193.59 111.676 186.517 101.037C179.573 90.5486 183.682 75.3327 191.086 66.2169C198.038 57.6665 208.096 52.1925 218.419 48.3395C246.173 37.972 277.857 38.2209 305.234 49.5686C313.362 52.9012 321.204 57.3046 327.311 63.6533C333.268 69.8436 337.392 78.0925 337.445 86.658Z" stroke="black" stroke-width="4.05" stroke-miterlimit="10"/>
<path d="M223.546 96.7465C229.434 96.7465 234.208 91.9737 234.208 86.0849C234.208 80.1969 229.434 75.4234 223.546 75.4234C217.658 75.4234 212.884 80.1969 212.884 86.0849C212.884 91.9737 217.658 96.7465 223.546 96.7465Z" fill="white"/>
<path d="M258.019 96.7465C263.907 96.7465 268.68 91.9737 268.68 86.0849C268.68 80.1969 263.907 75.4234 258.019 75.4234C252.131 75.4234 247.357 80.1969 247.357 86.0849C247.357 91.9737 252.131 96.7465 258.019 96.7465Z" fill="white"/>
<path d="M293.163 96.7465C299.051 96.7465 303.824 91.9737 303.824 86.0849C303.824 80.1969 299.051 75.4234 293.163 75.4234C287.275 75.4234 282.501 80.1969 282.501 86.0849C282.501 91.9737 287.275 96.7465 293.163 96.7465Z" fill="white"/>
<g opacity="0.54">
<path opacity="0.54" d="M498.032 533.08L493.697 595.662C491.714 599.439 489.237 602.936 486.33 606.059C486.013 605.946 485.697 605.825 485.388 605.682C484.807 605.486 484.234 605.252 483.691 605.026C474.907 601.173 468.234 593.995 466.289 585.86C464.532 578.734 466.115 571.036 462.722 564.34C458.583 556.092 447.326 550.919 445.946 541.615C444.649 532.906 452.49 524.921 451.224 516.386C449.716 506.735 437.916 501.012 435.706 491.587C434.327 485.728 435.563 479.003 435.043 472.971C434.469 466.223 433.337 459.534 431.657 452.975C449.128 451.708 466.907 461.336 472.57 475.127C477.192 486.437 474.409 499.609 481.618 509.894C485.553 515.466 492.106 519.636 495.499 525.464C496.545 527.283 497.308 529.251 497.761 531.3C497.761 531.443 497.761 531.587 497.813 531.7C497.813 531.933 497.874 532.099 497.904 532.273C497.979 532.793 498.032 533.08 498.032 533.08Z" fill="#3FBDF1"/>
<path opacity="0.54" d="M498.062 533.025C498.062 533.025 498.009 532.769 497.949 532.271C498 532.47 498.038 532.671 498.062 532.874C498.073 532.898 498.079 532.923 498.079 532.95C498.079 532.975 498.073 533.001 498.062 533.025Z" fill="#3FBDF1"/>
</g>
<path d="M555.781 508.604C553.519 516.732 541.131 521.671 539.638 530.002C538.318 537.392 546.477 544.283 545.127 551.786C543.687 559.831 531.962 564.279 527.657 571.39C524.151 577.165 525.787 583.808 523.977 589.953C521.881 596.935 514.929 603.171 505.761 606.473C505.188 606.677 504.645 606.873 504.064 607.046C503.747 607.137 503.401 607.25 503.084 607.333C500.068 604.837 496.562 600.441 493.719 595.699L498.032 533.079C501.395 530.229 505.24 527.62 507.917 524.453C510.82 521.037 512.17 517.305 513.029 513.392H513.12V512.962C514.379 506.787 514.492 500.318 517.395 494.459C523.284 482.538 541.764 474.229 559.951 475.322C558.234 480.953 557.06 486.735 556.444 492.589C555.924 497.769 557.206 503.575 555.781 508.604Z" fill="#3FBDF1"/>
<path d="M513.15 512.908V513.338H513.059L513.15 512.908Z" fill="#3FBDF1"/>
<path d="M513.15 512.909L513.059 513.338C512.2 517.252 510.85 520.984 507.947 524.399C505.27 527.566 501.425 530.175 498.062 533.025C498.076 532.986 498.076 532.944 498.062 532.905C498.039 532.701 498 532.5 497.949 532.301C497.949 532.128 497.889 531.962 497.859 531.728C497.859 531.615 497.859 531.472 497.806 531.329C497.353 529.279 496.59 527.311 495.544 525.493C492.151 519.664 485.599 515.495 481.663 509.923C481.663 509.923 483.442 480.554 498.469 471.619C512.72 463.175 513.15 508.023 513.15 512.909Z" fill="#3FBDF1"/>
<path d="M513.15 512.908V513.338H513.059L513.15 512.908Z" fill="#3FBDF1"/>
<path d="M498.032 532.905V533.078C498.032 533.078 497.979 532.822 497.919 532.324C497.97 532.515 498.007 532.709 498.032 532.905Z" fill="#3FBDF1"/>
<path d="M496.69 533.077C500.038 530.227 503.928 527.581 506.613 524.421C514.153 515.532 511.242 504.169 516.075 494.42C521.957 482.514 540.452 474.212 558.631 475.298C556.905 480.927 555.728 486.709 555.117 492.565C554.575 497.783 555.871 503.581 554.446 508.633C552.132 516.761 539.789 521.692 538.288 530.024C536.954 537.405 545.134 544.297 543.785 551.792C542.345 559.844 530.628 564.293 526.315 571.396C522.793 577.179 524.445 583.806 522.62 589.967C520.411 597.393 512.72 603.953 502.699 607.052C502.383 607.158 502.036 607.271 501.712 607.354C498.696 604.858 495.189 600.462 492.339 595.712" stroke="black" stroke-width="4.05" stroke-miterlimit="10"/>
<path d="M547.532 484.624C520.426 513.797 507.676 575.3 502.714 607.059C502.307 609.736 501.96 612.186 501.629 614.395" stroke="black" stroke-width="4.05" stroke-miterlimit="10"/>
<path d="M550.035 632.281L537.602 705.864C537.306 707.879 536.307 709.724 534.781 711.073C533.254 712.421 531.299 713.186 529.263 713.231H464.057C462 713.184 460.028 712.403 458.496 711.03C456.964 709.657 455.973 707.782 455.703 705.743L444.204 632.274L550.035 632.281Z" stroke="black" stroke-width="4.05" stroke-miterlimit="10"/>
<path d="M561.881 624.065C561.769 626.247 560.837 628.307 559.271 629.831C557.705 631.354 555.621 632.231 553.436 632.283H441.007C438.847 632.231 436.784 631.373 435.224 629.877C433.664 628.381 432.72 626.357 432.577 624.2C432.102 618.922 436.008 614.398 441.007 614.398H553.436C558.39 614.406 562.28 618.862 561.881 624.065Z" stroke="black" stroke-width="4.05" stroke-miterlimit="10"/>
<path d="M484.995 606.043C489.821 601.255 495.732 590.578 498.349 581.862C500.505 574.676 496.713 567.279 495.838 559.905C494.481 548.362 500.211 535.951 494.172 525.485C490.801 519.649 484.249 515.502 480.313 509.915C473.067 499.623 475.849 486.458 471.22 475.171C465.557 461.365 447.786 451.736 430.323 453.018C431.991 459.58 433.124 466.268 433.708 473.014C434.229 479.046 432.954 485.772 434.357 491.623C436.566 501.048 448.419 506.756 449.874 516.415C451.156 524.95 443.307 532.942 444.596 541.636C445.983 550.955 457.226 556.105 461.38 564.369C464.758 571.072 463.175 578.763 464.924 585.881C467.118 594.778 474.892 602.597 484.995 606.043Z" stroke="black" stroke-width="4.05" stroke-miterlimit="10"/>
<path d="M440.984 463.831C467.005 497.64 479.25 568.886 484.068 605.666C484.475 608.855 484.822 611.781 485.131 614.397" stroke="black" stroke-width="4.05" stroke-miterlimit="10"/>
<path d="M480.298 509.914C480.298 509.914 482.085 480.546 497.105 471.619C512.124 462.691 511.808 512.719 511.808 512.719" stroke="black" stroke-width="4.05" stroke-miterlimit="10"/>
<path d="M496.69 533.077C496.69 533.077 493.621 516.278 499.005 499.758" stroke="black" stroke-width="4.05" stroke-miterlimit="10"/>
</svg>
