<svg width="80" height="81" viewBox="0 0 80 81" fill="none" xmlns="http://www.w3.org/2000/svg">
<mask id="mask0_119_10" style="mask-type:luminance" maskUnits="userSpaceOnUse" x="0" y="0" width="80" height="81">
<path d="M80 0H0V80.8368H80V0Z" fill="white"/>
</mask>
<g mask="url(#mask0_119_10)">
<path d="M68.2423 68.9358C75.7858 61.3634 80.0147 51.1064 80.0001 40.4181C79.9921 39.7584 79.7246 39.1283 79.2552 38.6648C78.7857 38.2008 78.1527 37.941 77.493 37.941C76.833 37.941 76.2 38.2008 75.7306 38.6648C75.2611 39.1283 74.9937 39.7584 74.9856 40.4181C74.9962 49.7848 71.2883 58.7732 64.6767 65.4083C61.4671 68.7034 57.6301 71.3225 53.3916 73.1109C49.1535 74.899 44.6001 75.8203 40.0001 75.8203C35.4001 75.8203 30.8466 74.899 26.6084 73.1109C22.3703 71.3225 18.5331 68.7034 15.3235 65.4083C8.72076 58.7667 5.01467 49.7819 5.01467 40.4166C5.01467 31.0511 8.72076 22.0664 15.3235 15.4246C18.5145 12.1548 22.3228 9.55091 26.5276 7.76395C30.7325 5.97703 35.2503 5.04255 39.819 5.01474C40.7944 5.04529 41.7194 5.45578 42.3967 6.15862C43.0739 6.86141 43.4497 7.80102 43.4438 8.77699C43.4384 9.75296 43.0516 10.6881 42.3663 11.383C41.681 12.0779 40.7513 12.4776 39.7754 12.4968C39.6851 12.497 39.5947 12.502 39.5051 12.5118C32.5542 12.7356 25.9589 15.6379 21.0983 20.6118C15.9652 25.7792 13.0842 32.7671 13.0842 40.0507C13.0842 47.3345 15.9652 54.3222 21.0983 59.4896C23.606 62.0585 26.6022 64.0998 29.9105 65.4935C33.2188 66.8872 36.7726 67.605 40.3623 67.605C43.9521 67.605 47.5059 66.8872 50.8143 65.4935C54.1223 64.0998 57.1186 62.0585 59.6264 59.4896C64.7674 54.3277 67.6496 47.3363 67.6393 40.0507C67.6499 38.9033 67.4329 37.7647 67.0012 36.7014C66.5691 35.6383 65.931 34.6711 65.1231 33.8559C64.3152 33.0407 63.354 32.3936 62.2948 31.952C61.2355 31.5104 60.0994 31.283 58.9517 31.283C57.8039 31.283 56.6678 31.5104 55.6085 31.952C54.5493 32.3936 53.5881 33.0407 52.7802 33.8559C51.9723 34.6711 51.3342 35.6383 50.9021 36.7014C50.4704 37.7647 50.2534 38.9033 50.264 40.0507C50.264 40.1239 50.2688 40.1927 50.2746 40.263C50.2688 40.3332 50.264 40.4035 50.264 40.4752C50.2805 42.4758 49.702 44.4363 48.6021 46.108C47.5026 47.7794 45.9312 49.0863 44.0874 49.8635C42.2437 50.6403 40.2105 50.8521 38.2464 50.472C36.282 50.0914 34.4749 49.1365 33.0544 47.7274C31.6338 46.3184 30.6638 44.5193 30.2674 42.5582C29.8711 40.597 30.0662 38.5623 30.8281 36.7124C31.5899 34.8621 32.8842 33.2801 34.5466 32.1668C36.209 31.0534 38.1648 30.459 40.1655 30.459C40.4973 30.463 40.8266 30.4011 41.1344 30.2769C41.4421 30.1527 41.722 29.9686 41.958 29.7354C42.194 29.5022 42.3817 29.2245 42.5094 28.9183C42.6374 28.6121 42.7033 28.2836 42.7033 27.9517C42.7033 27.6199 42.6374 27.2914 42.5094 26.9852C42.3817 26.679 42.194 26.4012 41.958 26.168C41.722 25.9348 41.4421 25.7508 41.1344 25.6265C40.8266 25.5024 40.4973 25.4405 40.1655 25.4445C37.1963 25.4609 34.2984 26.3565 31.8375 28.0181C29.3766 29.6798 27.4631 32.0331 26.3382 34.7811C25.2133 37.529 24.9276 40.5487 25.5169 43.459C26.1063 46.3693 27.5445 49.0395 29.6499 51.1335C31.7554 53.2271 34.4338 54.6504 37.3474 55.2238C40.2606 55.7967 43.2788 55.4941 46.0204 54.354C48.762 53.2139 51.1048 51.2875 52.7528 48.8174C54.4007 46.3473 55.28 43.4444 55.28 40.4752C55.28 40.402 55.2752 40.3332 55.2694 40.263C55.2752 40.1927 55.28 40.1225 55.28 40.0507C55.2701 39.5623 55.3579 39.0767 55.5383 38.6223C55.7183 38.1682 55.9876 37.7544 56.3293 37.4057C56.6714 37.0567 57.0798 36.7793 57.5302 36.5902C57.9806 36.401 58.4647 36.3035 58.9531 36.3035C59.4416 36.3035 59.9256 36.401 60.3761 36.5902C60.8265 36.7793 61.2348 37.0567 61.5769 37.4057C61.9186 37.7544 62.1879 38.1682 62.368 38.6223C62.5483 39.0767 62.6362 39.5623 62.6263 40.0507C62.6329 46.0154 60.2718 51.7387 56.0615 55.9636C54.0202 58.0609 51.5794 59.7275 48.8831 60.8657C46.1869 62.004 43.2898 62.5902 40.3631 62.5902C37.4367 62.5902 34.5397 62.004 31.8434 60.8657C29.1472 59.7275 26.7064 58.0609 24.665 55.9636C20.4604 51.735 18.1003 46.014 18.1003 40.0507C18.1003 34.0875 20.4604 28.3666 24.665 24.1379C26.708 22.0433 29.1489 20.3782 31.8444 19.2402C34.54 18.1022 37.4356 17.5144 40.3616 17.5113C40.5866 17.5107 40.8105 17.4797 41.0275 17.4191C43.1621 17.0917 45.1002 15.9878 46.4708 14.3191C47.8415 12.6504 48.5476 10.5345 48.4539 8.37714C48.3603 6.21979 47.473 4.17301 45.963 2.62944C44.453 1.08585 42.4263 0.154139 40.2716 0.0130484C40.1816 0.00324447 40.0908 -0.00176319 40.0001 -0.00195312C39.9496 -0.00195312 39.8995 -0.00195312 39.849 -0.00195312C39.8241 -0.00195312 39.8 -0.00195312 39.7758 -0.00195312C39.7517 -0.00195312 39.7268 0.000971969 39.7026 0.00170375C34.4902 0.0426963 29.3374 1.11507 24.5414 3.15699C19.7453 5.19889 15.401 8.16998 11.7587 11.8989C4.22757 19.4793 0.000793457 29.731 0.000793457 40.4166C0.000793457 51.102 4.22757 61.3535 11.7587 68.934C15.4346 72.7008 19.827 75.6945 24.6772 77.738C29.5275 79.7818 34.7376 80.8348 40.0008 80.8348C45.2641 80.8348 50.474 79.7818 55.3246 77.738C60.1748 75.6945 64.5669 72.7008 68.243 68.934L68.2423 68.9358Z" fill="url(#paint0_linear_119_10)"/>
</g>
<defs>
<linearGradient id="paint0_linear_119_10" x1="11.6007" y1="68.7902" x2="62.4382" y2="19.039" gradientUnits="userSpaceOnUse">
<stop stop-color="#41287B"/>
<stop offset="0.123" stop-color="#462779"/>
<stop offset="0.284" stop-color="#572775"/>
<stop offset="0.465" stop-color="#72266E"/>
<stop offset="0.663" stop-color="#982565"/>
<stop offset="0.87" stop-color="#C82459"/>
<stop offset="0.99" stop-color="#E72452"/>
</linearGradient>
</defs>
</svg>
